PathFileType	4	(X/Y/Z)	C:\Users\WrightLab\Desktop\Jo\P4V130.trc
DataRate	CameraRate	NumFrames	NumMarkers	Units	OrigDataRate	OrigDataStartFrame	OrigNumFrames
100.00	100.00	       16	19	mm	100.00	337	       672
Frame#	Time	Headset_Front			Headset_Back			Headset_Left			Headset_Right			Left_Shoulder			Right_Shoulder			Sternum			C7			Left Elbow			Right Elbow			Left Wrist			Right Wrist			Left ASIS			Right ASIS			S2			Left Knee			Right Knee			Left Ankle			Right Ankle			
		X1	Y1	Z1	X2	Y2	Z2	X3	Y3	Z3	X4	Y4	Z4	X5	Y5	Z5	X6	Y6	Z6	X7	Y7	Z7	X8	Y8	Z8	X9	Y9	Z9	X10	Y10	Z10	X11	Y11	Z11	X12	Y12	Z12	X13	Y13	Z13	X14	Y14	Z14	X15	Y15	Z15	X16	Y16	Z16	X17	Y17	Z17	X18	Y18	Z18	X19	Y19	Z19	

337	3.360	-229.94481	1678.35486	408.82410							-368.13803	1714.37231	358.77249	-219.66171	1521.63635	118.23964	-455.22717	1536.56555	307.82651	-262.55325	1467.03296	293.81247	-375.00012	1560.81812	171.33163	-108.52319	1174.58557	32.30386	-581.95898	1197.06348	417.89807	-21.85401	921.93469	197.66039	-492.69992	929.02289	542.57343	-185.86520	1028.07275	191.93745	-431.37027	1049.22034	420.64548	-415.86411	1049.45447	148.79193	-72.69556	602.58435	329.19592	-458.96625	558.49603	403.91693	-344.32455	197.35507	163.42503	-499.98453	58.47031	270.36755	
338	3.370	-224.77077	1678.17639	417.28024							-362.68997	1714.14526	367.55801	-215.83826	1520.69531	126.18109	-449.46115	1536.73962	317.86752	-256.68985	1466.42261	301.43271	-370.58838	1560.83801	180.29298	-106.77952	1174.05518	35.58883	-574.86292	1197.34180	430.00201	-16.61863	921.87604	199.58945	-482.05521	930.82623	555.24506	-180.78061	1028.82422	199.77388	-427.01935	1047.90576	429.05844	-411.28372	1049.91638	155.24724	-63.50983	606.42810	339.21201	-456.05301	557.97412	407.79794	-322.98120	185.46036	187.82272	-499.67450	59.01677	270.13779	
339	3.380	-218.55771	1677.83057	425.56946							-357.54865	1713.79175	376.46613	-211.40117	1520.81091	133.42407	-443.24579	1536.50012	327.07092	-251.49576	1466.09180	309.52875	-366.20630	1560.54724	189.34590	-105.31898	1174.09595	39.82994	-566.40344	1197.13354	442.20404	-12.34680	920.73822	201.67204	-472.51108	932.14258	567.31012	-175.51779	1029.70789	207.76373	-422.21124	1046.75757	436.11218				-55.40470	609.43488	348.55267	-452.37122	556.77551	410.64798	-298.98145	172.47816	211.68443	-499.47546	59.33607	270.38751	
340	3.390	-213.38914	1677.09814	434.13220							-352.13037	1713.35559	385.18570	-207.50960	1520.14661	140.56827	-437.61459	1536.11707	336.79013	-245.58128	1465.79651	317.38126	-361.00085	1560.24780	197.47812	-103.19672	1173.46533	44.50234	-559.05206	1197.26782	454.15796	-7.96543	919.71906	202.79820	-461.88361	932.98901	579.79395	-170.06990	1030.56494	217.03867	-416.05734	1046.12476	444.96274	-401.25125	1048.76172	173.11871	-47.72384	612.00885	357.66248	-449.52972	556.33350	414.35559	-275.58051	162.50598	234.81786	-499.28687	59.68393	270.37665	
341	3.400	-206.90704	1676.46155	442.01086							-345.43320	1712.57922	393.45828	-203.17197	1519.54492	147.72748	-431.77475	1535.70215	346.04321	-240.12402	1465.36646	325.44156	-356.61053	1559.88574	206.92195	-101.17078	1172.84460	49.22953	-551.93359	1197.10486	466.23138	-3.65770	917.89813	204.55513	-452.30539	934.51013	591.93488	-165.71748	1030.66370	223.93649	-409.81952	1045.35400	454.43033	-396.11780	1048.94421	179.99648	-40.41188	613.27698	366.11823	-446.28479	555.24536	417.60275	-251.68616	150.07961	259.46823	-498.72351	60.04302	270.25848	
342	3.410	-200.56793	1675.23450	450.33829							-340.29651	1711.77234	402.25308	-198.93167	1519.18579	154.62604	-425.39880	1534.98474	355.14462	-233.63667	1464.22644	333.07614	-351.14932	1559.20313	214.89053	-98.93188	1172.33337	53.30905	-545.37823	1198.25378	477.83322	0.22576	916.06696	206.11896	-440.98816	935.72156	604.06653	-160.05632	1030.46594	231.79924	-403.10434	1044.43726	463.22977	-390.55655	1048.18188	190.38870	-33.74567	615.04816	374.57196	-443.15616	554.53522	421.44659	-225.37819	139.01863	282.83102	-498.35208	60.37565	270.40817	
343	3.420										-334.16333	1710.90906	410.59100	-194.33701	1518.16772	162.03595	-419.56238	1534.20313	364.17877	-228.34541	1463.54028	341.21194	-346.32608	1558.47217	224.00340	-96.77618	1171.16150	58.49551	-536.39813	1196.01904	488.93616	5.81807	915.18903	207.88179	-430.81808	936.43280	615.84247	-154.44670	1030.65454	239.58768	-396.90591	1042.45544	471.56555	-384.92249	1047.74585	198.15857	-27.79173	615.05353	382.31531	-440.03214	553.93188	424.55383	-198.47794	127.95839	307.08182	-497.60297	61.06616	270.16971	
344	3.430	-188.90279	1673.03210	466.75565							-327.95712	1709.44470	419.03540	-189.45267	1516.97717	170.08510	-413.41376	1533.33704	373.10477	-222.13538	1461.52637	344.89154	-340.89172	1557.81738	232.33212	-94.07849	1170.20642	63.50068	-529.95581	1197.29773	500.63831	9.93539	913.19208	209.62395	-420.84064	937.17908	628.18237	-148.48831	1030.43530	247.93175	-391.90137	1041.12549	480.00476	-379.16412	1047.19519	206.31960	-22.09924	614.56799	389.86752	-436.54761	552.72601	427.82584	-171.77859	117.20338	330.85208	-497.34610	61.32704	270.24551	
345	3.440	-183.09579	1671.92078	475.00183							-321.67126	1708.61438	427.27347	-183.99881	1515.53149	177.97508	-407.32544	1532.40820	382.30374	-215.98988	1461.95386	356.79153	-335.40472	1556.68176	240.70036	-91.32275	1169.26282	68.18227	-521.66852	1195.90259	512.14886	13.97225	910.57642	211.77670	-410.59439	938.13214	639.57770	-142.45662	1029.89697	255.80803	-384.86621	1039.64624	488.32956	-373.35037	1046.16016	215.05632	-16.99936	613.31757	396.88840	-433.70740	551.90680	431.71521	-143.82071	106.83846	354.77264	-497.08511	61.63213	270.30164	
346	3.450	-177.35353	1670.71838	483.12628							-315.73462	1707.01465	435.78040	-178.71397	1514.30383	185.61119	-401.09534	1531.38123	390.95978	-209.81770	1460.88818	364.60739	-329.63904	1555.68298	248.89165	-87.87096	1168.63428	73.92268	-514.11871	1195.13049	522.69391	19.32177	908.24731	213.19884	-399.71408	938.64374	651.36005	-136.46808	1029.12854	264.87573	-378.56262	1037.73083	497.19290	-366.96411	1045.24512	225.19591	-12.45254	610.95801	403.28928	-430.12177	550.88391	434.56747	-115.18568	97.36115	378.87708	-496.55109	61.91430	270.16431	
347	3.460	-170.01698	1669.19177	490.97610							-309.11066	1706.08667	443.83652	-173.57953	1513.27490	193.37090	-394.85583	1530.16077	399.47687	-203.62794	1459.67383	372.72556	-324.15753	1554.29272	257.71960	-84.32399	1166.98340	79.09357	-506.27264	1194.47522	533.25287	24.03992	905.43079	215.00644	-390.08200	939.54211	662.74969	-130.10263	1028.10583	272.70200	-372.37067	1036.16443	505.92215	-360.56055	1044.59790	233.86345	-8.09086	607.38251	409.86923	-426.31683	549.73853	437.38400	-86.08755	89.64210	401.88586	-496.08459	62.50424	270.48627	
348	3.470	-163.81873	1667.69873	499.17374							-303.70023	1704.32080	452.38965	-167.37016	1512.07495	201.56332	-388.40112	1529.10425	408.02600	-197.22581	1458.69470	380.61935	-317.95361	1552.79614	265.57739	-81.18569	1166.22266	84.68246	-497.65091	1193.30420	543.53290	27.79778	902.52686	216.81845	-379.66928	939.74139	673.12018	-122.68680	1027.24072	281.06320	-365.64075	1033.72644	514.59851	-353.98361	1043.99023	241.86050	-4.21170	603.70404	415.81079	-422.81821	548.90656	440.55948	-56.86755	83.46389	424.70001	-495.09558	63.03125	270.29333	
349	3.480										-297.13333	1702.89111	460.41364	-162.44221	1510.33594	207.29070	-381.91663	1527.55249	416.06769	-191.32915	1457.50220	388.71735	-311.77145	1551.30481	273.70660	-77.36318	1164.37366	90.48603	-490.06796	1192.15833	554.03400	31.96648	899.53839	219.13011	-369.24072	940.30884	684.65887	-116.39437	1025.44812	289.64230	-358.40903	1032.12109	523.69501	-347.12625	1042.78003	251.00270	-0.19661	598.99915	420.91980	-418.54614	547.43292	444.08252	-28.16175	78.48779	446.39069	-494.51187	63.67289	270.43765	
350	3.490	-151.40660	1664.41467	515.46393							-291.18039	1700.89502	468.62808	-155.85985	1508.87219	216.41934	-375.00827	1525.77612	424.23746	-183.99701	1455.76355	396.55661	-305.67349	1549.68555	282.13458	-73.26646	1162.82471	96.38636	-482.43814	1190.91748	563.38556	35.71218	896.56439	221.30450	-359.33224	941.21143	695.73181	-109.80586	1023.80029	298.39914	-350.97476	1028.97290	529.11176	-339.95026	1041.58435	258.60413	3.74425	594.58270	427.36472	-415.21201	545.92316	447.72684	-0.34085	75.57328	468.23907	-494.17746	64.27686	270.51047	
351	3.500	-144.94038	1662.93250	523.46808							-284.42615	1698.89233	476.48764	-149.51422	1506.86194	223.57236	-368.23456	1524.11279	432.50247	-177.38951	1454.25427	404.54688	-299.11755	1547.57678	289.99551	-68.68857	1161.30188	102.52271	-474.35672	1189.08496	573.32928	40.35220	893.17389	223.77356	-349.35150	941.24353	706.26526	-102.69347	1022.23761	307.73154	-344.82864	1027.49646	539.74072	-332.51389	1040.38745	267.24548	7.75650	590.53766	432.53830	-411.61157	545.70416	452.08154	26.68686	74.49318	487.51028	-493.57339	65.37933	270.57510	
352	3.510	-139.08174	1661.11499	531.74316							-278.80151	1697.37036	484.68442	-143.41408	1504.95374	231.80133	-361.75119	1522.28430	440.92001	-170.78534	1452.70923	412.67435	-292.49249	1545.56482	298.08789	-63.96102	1159.54639	108.66286	-466.52698	1188.35437	582.18573	44.63392	890.23077	226.57309	-338.97961	941.66583	716.88464	-95.72802	1019.74261	317.09106	-337.47656	1024.90283	549.16364				12.36075	586.13770	437.48163	-407.47595	544.39478	456.02328	51.72569	74.27981	505.95346	-492.56299	66.33153	270.65051	
